<svg width="512" height="512" viewBox="0 0 512 512" fill="none" xmlns="http://www.w3.org/2000/svg">
<rect width="512" height="512" fill="#8D6FDE"/>
<path d="M97.6367 307.938C97.9739 307.876 209.478 287.365 255.995 347.601C301.315 288.14 414.357 307.938 414.357 307.938L409.227 340.73C409.227 340.73 284.815 313.442 275.215 392.401H236.815C227.215 313.638 102.765 340.73 102.765 340.73L97.6367 307.938ZM256.015 224.001C256.015 224.001 277.615 246.801 277.615 270.801C277.615 285.201 267.944 298.401 256.015 298.401C244.086 298.401 234.415 285.201 234.415 270.801C234.415 246.801 256.015 224.001 256.015 224.001ZM116.007 243.433C116.007 243.433 144.179 229.548 167.104 236.651C180.859 240.912 190.604 254.056 187.074 265.451C183.544 276.845 168.074 282.177 154.32 277.916C131.413 270.819 116.032 243.477 116.007 243.433ZM344.779 236.651C367.691 229.552 395.843 243.418 395.874 243.433C395.808 243.552 380.438 270.829 357.563 277.916C343.808 282.178 328.337 276.846 324.807 265.451C321.277 254.056 331.024 240.912 344.779 236.651ZM154.798 176.232C154.875 176.217 185.65 170.244 205.882 183.097C218.036 190.819 223.993 206.06 217.596 216.129C211.199 226.198 194.871 227.282 182.716 219.56C162.459 206.69 154.798 176.232 154.798 176.232ZM305.276 183.097C325.508 170.244 356.283 176.217 356.36 176.232C356.36 176.232 348.699 206.69 328.441 219.56C316.287 227.282 299.959 226.198 293.562 216.129C287.165 206.06 293.121 190.819 305.276 183.097ZM256.015 119.601C256.015 119.601 277.615 142.401 277.615 166.401C277.615 180.801 267.944 194.001 256.015 194.001C244.086 194.001 234.415 180.801 234.415 166.401C234.415 142.401 256.015 119.601 256.015 119.601Z" fill="white"/>
</svg>
